<svg width="38" height="38" viewBox="0 0 38 38" fill="none" xmlns="http://www.w3.org/2000/svg">
<path d="M18.75 31.25L27.0833 22.9167L24.1667 20L20.8333 23.3333V14.5833H16.6667V23.3333L13.3333 20L10.4167 22.9167L18.75 31.25ZM4.16667 10.4167V33.3333H33.3333V10.4167H4.16667ZM4.16667 37.5C3.02083 37.5 2.03125 37.1007 1.19792 36.3021C0.399306 35.4688 0 34.4792 0 33.3333V7.34375C0 6.85764 0.0694449 6.38889 0.208334 5.9375C0.381945 5.48611 0.625 5.06944 0.937501 4.6875L3.54167 1.51042C3.92361 1.02431 4.39236 0.659722 4.94792 0.416666C5.53819 0.138889 6.14583 0 6.77083 0H30.7292C31.3542 0 31.9444 0.138889 32.5 0.416666C33.0903 0.659722 33.5764 1.02431 33.9583 1.51042L36.5625 4.6875C36.875 5.06944 37.1007 5.48611 37.2396 5.9375C37.4132 6.38889 37.5 6.85764 37.5 7.34375V33.3333C37.5 34.4792 37.0833 35.4688 36.25 36.3021C35.4514 37.1007 34.4792 37.5 33.3333 37.5H4.16667ZM5 6.25H32.5L30.7292 4.16667H6.77083L5 6.25Z" fill="#827676"/>
</svg>
