<svg width="42" height="42" viewBox="0 0 42 42" fill="none" xmlns="http://www.w3.org/2000/svg">
<path d="M15.2083 41.6667L14.375 35C13.9236 34.8264 13.4983 34.6181 13.099 34.375C12.6997 34.1319 12.309 33.8715 11.9271 33.5938L5.72917 36.1979L0 26.3021L5.36458 22.2396C5.32986 21.9965 5.3125 21.7622 5.3125 21.5365V20.1302C5.3125 19.9045 5.32986 19.6701 5.36458 19.4271L0 15.3646L5.72917 5.46875L11.9271 8.07292C12.309 7.79514 12.7083 7.53472 13.125 7.29167C13.5417 7.04861 13.9583 6.84028 14.375 6.66667L15.2083 0H26.6667L27.5 6.66667C27.9514 6.84028 28.3767 7.04861 28.776 7.29167C29.1753 7.53472 29.566 7.79514 29.9479 8.07292L36.1458 5.46875L41.875 15.3646L36.5104 19.4271C36.5451 19.6701 36.5625 19.9045 36.5625 20.1302V21.5365C36.5625 21.7622 36.5278 21.9965 36.4583 22.2396L41.8229 26.3021L36.0938 36.1979L29.9479 33.5938C29.566 33.8715 29.1667 34.1319 28.75 34.375C28.3333 34.6181 27.9167 34.8264 27.5 35L26.6667 41.6667H15.2083ZM21.0417 28.125C23.0556 28.125 24.7743 27.4132 26.1979 25.9896C27.6215 24.566 28.3333 22.8472 28.3333 20.8333C28.3333 18.8194 27.6215 17.1007 26.1979 15.6771C24.7743 14.2535 23.0556 13.5417 21.0417 13.5417C18.9931 13.5417 17.2656 14.2535 15.8594 15.6771C14.4531 17.1007 13.75 18.8194 13.75 20.8333C13.75 22.8472 14.4531 24.566 15.8594 25.9896C17.2656 27.4132 18.9931 28.125 21.0417 28.125Z" fill="#827676"/>
</svg>
