<svg width="50" height="34" viewBox="0 0 50 34" fill="none" xmlns="http://www.w3.org/2000/svg">
<path d="M0 33.3333V27.5521C0 26.3715 0.295139 25.2778 0.885417 24.2708C1.47569 23.2639 2.29167 22.5 3.33333 21.9792C3.81944 21.7361 4.28819 21.5104 4.73958 21.3021C5.22569 21.0938 5.72917 20.9028 6.25 20.7292V33.3333H0ZM8.33333 18.75C6.59722 18.75 5.12153 18.1424 3.90625 16.9271C2.69097 15.7118 2.08333 14.2361 2.08333 12.5C2.08333 10.7639 2.69097 9.28819 3.90625 8.07292C5.12153 6.85764 6.59722 6.25 8.33333 6.25C10.0694 6.25 11.5451 6.85764 12.7604 8.07292C13.9757 9.28819 14.5833 10.7639 14.5833 12.5C14.5833 14.2361 13.9757 15.7118 12.7604 16.9271C11.5451 18.1424 10.0694 18.75 8.33333 18.75ZM8.33333 14.5833C8.92361 14.5833 9.40972 14.3924 9.79167 14.0104C10.2083 13.5938 10.4167 13.0903 10.4167 12.5C10.4167 11.9097 10.2083 11.4236 9.79167 11.0417C9.40972 10.625 8.92361 10.4167 8.33333 10.4167C7.74306 10.4167 7.23958 10.625 6.82292 11.0417C6.44097 11.4236 6.25 11.9097 6.25 12.5C6.25 13.0903 6.44097 13.5938 6.82292 14.0104C7.23958 14.3924 7.74306 14.5833 8.33333 14.5833ZM8.33333 33.3333V27.5C8.33333 26.3194 8.62847 25.2431 9.21875 24.2708C9.84375 23.2639 10.6597 22.5 11.6667 21.9792C13.8194 20.9028 16.0069 20.1042 18.2292 19.5833C20.4514 19.0278 22.7083 18.75 25 18.75C27.2917 18.75 29.5486 19.0278 31.7708 19.5833C33.9931 20.1042 36.1806 20.9028 38.3333 21.9792C39.3403 22.5 40.1389 23.2639 40.7292 24.2708C41.3542 25.2431 41.6667 26.3194 41.6667 27.5V33.3333H8.33333ZM12.5 29.1667H37.5V27.5C37.5 27.1181 37.3958 26.7708 37.1875 26.4583C37.0139 26.1458 36.7708 25.9028 36.4583 25.7292C34.5833 24.7917 32.691 24.0972 30.7812 23.6458C28.8715 23.1597 26.9444 22.9167 25 22.9167C23.0556 22.9167 21.1285 23.1597 19.2188 23.6458C17.309 24.0972 15.4167 24.7917 13.5417 25.7292C13.2292 25.9028 12.9687 26.1458 12.7604 26.4583C12.5868 26.7708 12.5 27.1181 12.5 27.5V29.1667ZM25 16.6667C22.7083 16.6667 20.7465 15.8507 19.1146 14.2187C17.4826 12.5868 16.6667 10.625 16.6667 8.33333C16.6667 6.04167 17.4826 4.07986 19.1146 2.44792C20.7465 0.815973 22.7083 0 25 0C27.2917 0 29.2535 0.815973 30.8854 2.44792C32.5174 4.07986 33.3333 6.04167 33.3333 8.33333C33.3333 10.625 32.5174 12.5868 30.8854 14.2187C29.2535 15.8507 27.2917 16.6667 25 16.6667ZM25 12.5C26.1458 12.5 27.1181 12.1007 27.9167 11.3021C28.75 10.4688 29.1667 9.47917 29.1667 8.33333C29.1667 7.1875 28.75 6.21528 27.9167 5.41667C27.1181 4.58333 26.1458 4.16667 25 4.16667C23.8542 4.16667 22.8646 4.58333 22.0312 5.41667C21.2326 6.21528 20.8333 7.1875 20.8333 8.33333C20.8333 9.47917 21.2326 10.4688 22.0312 11.3021C22.8646 12.1007 23.8542 12.5 25 12.5ZM41.6667 18.75C39.9306 18.75 38.4549 18.1424 37.2396 16.9271C36.0243 15.7118 35.4167 14.2361 35.4167 12.5C35.4167 10.7639 36.0243 9.28819 37.2396 8.07292C38.4549 6.85764 39.9306 6.25 41.6667 6.25C43.4028 6.25 44.8785 6.85764 46.0938 8.07292C47.309 9.28819 47.9167 10.7639 47.9167 12.5C47.9167 14.2361 47.309 15.7118 46.0938 16.9271C44.8785 18.1424 43.4028 18.75 41.6667 18.75ZM41.6667 14.5833C42.2569 14.5833 42.7431 14.3924 43.125 14.0104C43.5417 13.5938 43.75 13.0903 43.75 12.5C43.75 11.9097 43.5417 11.4236 43.125 11.0417C42.7431 10.625 42.2569 10.4167 41.6667 10.4167C41.0764 10.4167 40.5729 10.625 40.1562 11.0417C39.7743 11.4236 39.5833 11.9097 39.5833 12.5C39.5833 13.0903 39.7743 13.5938 40.1562 14.0104C40.5729 14.3924 41.0764 14.5833 41.6667 14.5833ZM43.75 33.3333V20.7292C44.2708 20.9028 44.7569 21.0938 45.2083 21.3021C45.6944 21.5104 46.1806 21.7361 46.6667 21.9792C47.7083 22.5 48.5243 23.2639 49.1146 24.2708C49.7049 25.2778 50 26.3715 50 27.5521V33.3333H43.75Z" fill="#827676"/>
</svg>
